# xmcd
#
# Track frame offsets:
#	151
#	15668
#	29349
#	44486
#	59654
#	74008
#	90746
#	105385
#	122120
#	136166
#
# Disc length: 2049 seconds
#
# Revision: 1
# Processed by: cddbd v1.5.1PL0 Copyright (c) Steve Scherf et al.
# Submitted via: audiograbber 1.83.01
#
DISCID=8c07ff0a
DTITLE=Μανωλης Κονδυλης - εισε αγαπη που δεν τελειωνει
DYEAR=1900
DGENRE=
TTITLE0=εισε αγαπη που δεν τελειωνει
TTITLE1=γυρισε
TTITLE2=Η αγαπη σου ειναι κυμα
TTITLE3=ουρανε μου
TTITLE4=στην αγια παρασκευει
TTITLE5=χειλακια κατακοκκινα
TTITLE6=ταξιδια στη μεσογειο
TTITLE7=σου παραπονιετε
TTITLE8=κατι αλαξε καρδια μου
TTITLE9=ο χορευτις ο αυγινος
EXTD=
EXTT0=
EXTT1=
EXTT2=
EXTT3=
EXTT4=
EXTT5=
EXTT6=
EXTT7=
EXTT8=
EXTT9=
PLAYORDER=
